<?xml version="1.0"?>
<svg width="440" height="400" xmlns="http://www.w3.org/2000/svg" xmlns:svg="http://www.w3.org/2000/svg">
 <!-- Created with SVG-edit - https://github.com/SVG-Edit/svgedit-->
 <g class="layer">
  <title>Layer 1</title>
  <path d="m221.59,27.04c-3.64,0 -6.87,1.49 -9.6,4.2c-2.73,2.71 -4.98,6.58 -6.86,11.42c-3.75,9.68 -6.06,23.28 -7.33,39.57c-1.26,16.26 -1.47,35.19 -0.95,55.45c-44.92,18.43 -136.03,56.48 -143.35,64.98c-9.74,11.31 -6.6,24.27 -2.67,32.88l149.78,-30.49c3.17,39.73 7.67,79.08 11.59,109.91c-14.65,4.29 -41.99,12.75 -47.63,18c-7.77,7.23 -7.77,30.58 -7.77,30.58l61.3,-4.99c1.44,10.07 2.35,15.94 2.35,15.94l0.09,0.53l0.48,0l1.13,0l0.48,0l0.09,-0.53c0,0 0.9,-5.87 2.35,-15.94l61.32,4.99c0,0 0,-23.35 -7.77,-30.58c-5.65,-5.25 -33.01,-13.73 -47.65,-18.02c3.91,-30.74 8.41,-69.94 11.57,-109.54l148.03,30.13c3.93,-8.61 7.09,-21.57 -2.65,-32.88c-7.23,-8.39 -96.14,-45.59 -141.61,-64.27c0.54,-20.53 0.34,-39.72 -0.93,-56.16l0,-0.04c-1.26,-16.27 -3.58,-29.86 -7.33,-39.53c-1.88,-4.84 -4.11,-8.72 -6.84,-11.42c-2.73,-2.71 -5.97,-4.2 -9.6,-4.2l-0.02,0.01z" fill="#ffffff" id="svg_4" stroke="#000000" stroke-width="5"/>
  <path d="m160.75,360.75c0.83,-0.25 1.69,-0.25 2.59,-0.25c0.85,0 1.61,0.02 2.66,-0.13c0.85,-0.11 1.72,0.03 2.58,0.13c0.73,0.08 1.92,-0.04 2.82,-0.07c0.51,-0.02 1.58,-0.05 2.12,-0.07c1.01,-0.04 2.19,-0.01 3.08,-0.11c0.83,-0.1 1.75,-0.24 2.57,-0.24c0.91,0 1.7,0.04 2.72,-0.07c0.95,-0.1 1.74,-0.18 2.64,-0.18c0.83,0 1.65,-0.03 2.61,-0.13c0.96,-0.1 1.73,-0.12 2.81,-0.13c0.73,0 1.65,0 2.63,0c0.8,0 1.62,0 2.55,-0.04c0.92,-0.04 1.63,-0.08 2.34,-0.13c1.21,-0.09 2.1,-0.25 3.07,-0.32c0.66,-0.05 1.6,-0.08 2.44,-0.13c0.78,-0.05 2.01,-0.13 2.87,-0.13c0.82,0 1.79,0 2.69,0c0.84,0 1.76,0 2.67,0c0.76,0 1.73,0 2.56,0c1.03,0 1.77,0 2.77,0c0.86,0 1.74,-0.03 2.58,-0.38c0.77,-0.32 1.37,0.05 1.73,0.73c0.39,0.74 0.44,1.76 0.89,1.52c0.72,-0.39 1.37,-1.06 2.03,-1.67c0.64,-0.58 1.13,-1.36 1.75,-1.97c0.61,-0.61 1.22,-1.18 2.03,-1.23c0.8,-0.04 1.78,0.03 2.65,0c0.92,-0.04 1.74,-0.25 2.61,-0.25c0.9,0 1.75,0 2.65,0c0.9,0 1.84,0 2.75,0c0.84,0 1.71,0 2.65,0c0.87,0 1.76,0 2.68,0c0.84,0 1.75,0.02 2.59,0.25c0.86,0.23 1.71,0.41 2.51,0.62c0.85,0.22 1.76,0.12 2.65,0.24c0.92,0.13 1.77,0.31 2.71,0.39c0.85,0.07 1.71,0.17 2.53,0.26c0.95,0.11 1.79,0.18 2.68,0.28c0.85,0.09 1.74,0.21 2.64,0.21c0.88,0 1.78,0.08 2.62,0.27c0.84,0.19 1.77,0.22 2.58,0.33c0.89,0.13 1.79,0.29 2.67,0.39c0.87,0.11 1.73,0.29 2.54,0.41c0.93,0.14 1.77,0.34 2.64,0.48c0.88,0.15 1.76,0.18 2.6,0.36c0.82,0.18 1.73,0.4 2.61,0.49c0.89,0.09 1.74,0.24 2.57,0.26c0.94,0.01 1.56,-0.49 1.57,-1.37c0.01,-0.89 0,-1.78 0,-2.68c0,-0.88 0.19,-1.69 0.25,-2.49c0.07,-0.92 -0.06,-1.77 -0.25,-2.62c-0.16,-0.69 -0.61,-1.37 -0.88,-2.09c-0.29,-0.79 -0.38,-1.67 -0.73,-2.44c-0.37,-0.82 -0.61,-1.66 -0.95,-2.47c-0.33,-0.79 -0.61,-1.61 -0.99,-2.33c-0.41,-0.79 -0.91,-1.35 -1.44,-2c-0.53,-0.65 -0.98,-1.46 -1.6,-2.07c-0.6,-0.61 -1.15,-1.13 -1.72,-1.63c-0.64,-0.57 -1.23,-1.19 -1.88,-1.72c-0.67,-0.55 -1.37,-1 -2.08,-1.45c-0.76,-0.49 -1.38,-1.11 -2.2,-1.47c-0.83,-0.37 -1.5,-0.9 -2.3,-1.26c-0.85,-0.39 -1.74,-0.44 -2.59,-0.64c-0.81,-0.18 -1.72,-0.28 -2.52,-0.51c-0.88,-0.25 -1.8,-0.24 -2.63,-0.36c-0.9,-0.13 -1.79,-0.22 -2.64,-0.38c-0.86,-0.16 -1.69,-0.29 -2.61,-0.54c-0.84,-0.23 -1.59,-0.6 -2.4,-0.89c-0.88,-0.31 -1.8,-0.42 -2.55,-0.72c-0.86,-0.35 -1.38,-1.11 -2.1,-1.6c-0.74,-0.51 -1.43,-0.99 -2.17,-1.49c-0.75,-0.51 -0.08,-0.1 0.81,-0.01c0.9,0.09 1.77,0.17 2.67,0.25c0.81,0.07 1.69,0.25 2.58,0.38c0.86,0.12 1.83,0.02 2.68,0.14c0.87,0.12 1.7,0.2 2.59,0.24c0.93,0.04 1.75,0.18 2.68,0.25c0.82,0.06 1.76,0.27 1.59,0.25c-0.84,-0.12 -1.76,-0.4 -2.45,-0.59c-0.9,-0.24 -1.64,-0.37 -2.65,-0.6c-0.96,-0.22 -1.63,-0.39 -2.27,-0.57c-1.26,-0.35 -2.01,-0.62 -2.85,-0.9c-0.78,-0.26 -1.58,-0.49 -2.62,-0.83c-0.89,-0.28 -1.67,-0.65 -2.49,-0.93c-0.81,-0.27 -1.63,-0.4 -2.45,-0.59c-0.86,-0.19 -1.72,-0.36 -2.59,-0.52c-0.91,-0.17 -1.71,-0.39 -2.49,-0.73c-0.76,-0.33 -1.53,-0.71 -2.32,-0.97c-0.81,-0.26 -1.58,-0.69 -2.37,-1.03c-0.79,-0.34 -1.7,-0.28 -2.53,-0.5c-0.72,-0.19 -1.66,-0.15 -2.43,-0.5c-0.63,-0.29 -0.49,-1.26 -0.39,-2.1c0.1,-0.89 0.09,-1.76 0.22,-2.64c0.12,-0.81 0.03,-1.76 0.03,-2.63c0,-0.9 0,-1.8 0,-2.67c0,-0.87 0,-1.8 0,-2.66c0,-0.87 -0.1,-1.78 -0.22,-2.63c-0.13,-0.91 -0.03,-1.79 -0.03,-2.7c0,-0.81 0,-1.75 0,-2.68c0,-0.87 0.15,-1.66 0.25,-2.58c0.09,-0.86 0.13,-1.75 0.25,-2.67c0.12,-0.86 0.49,-1.64 0.75,-2.44c0.25,-0.75 0.56,-1.58 0.75,-2.31c0.21,-0.78 0.29,-1.62 0.51,-2.43c0.21,-0.78 0.35,-1.61 0.49,-2.5c0.13,-0.81 0.16,-1.66 0.29,-2.57c0.12,-0.85 0.17,-1.72 0.3,-2.62c0.12,-0.83 0.3,-1.71 0.41,-2.56c0.12,-0.89 0.25,-1.7 0.25,-2.6c0,-0.85 -0.11,-1.78 0.01,-2.64c0.12,-0.89 0.27,-1.75 0.42,-2.58c0.16,-0.88 0.36,-1.75 0.56,-2.61c0.19,-0.82 0.33,-1.68 0.51,-2.53c0.17,-0.8 0.24,-1.68 0.5,-2.52c0.24,-0.77 0.25,-1.67 0.25,-2.52c0,-0.92 0,-1.75 -0.06,-1.57c-0.25,0.86 -0.31,1.62 -0.46,2.56c-0.14,0.9 -0.3,1.79 -0.54,2.61c-0.24,0.82 -0.55,1.64 -0.82,2.53c-0.26,0.83 -0.49,1.54 -0.77,2.44c-0.31,0.98 -0.42,1.82 -0.61,2.7c-0.18,0.83 -0.34,1.69 -0.48,2.54c-0.16,0.9 -0.25,1.81 -0.4,2.61c-0.17,0.94 -0.34,1.8 -0.36,2.69c-0.02,0.88 0,1.79 0,2.66c0,0.9 0,1.78 0,2.64c0,0.91 0.11,1.78 0.24,2.65c0.12,0.84 0.12,1.69 0.26,2.61c0.13,0.85 0.25,1.71 0.25,2.59c0,0.89 0.12,1.79 -0.01,2.64c-0.13,0.86 -0.42,1.69 -0.49,2.52c-0.08,0.87 -0.25,1.69 -0.25,2.56c0,0.91 0.04,1.78 -0.26,2.63c-0.27,0.78 -0.53,0.45 -0.37,-0.37c0.17,-0.89 0.33,-1.79 0.42,-2.67c0.08,-0.87 0.23,-1.66 0.36,-2.49c0.14,-0.93 0.31,-1.84 0.4,-2.64c0.12,-0.99 0.16,-1.53 0.32,-2.62c0.12,-0.8 0.33,-1.95 0.47,-2.66c0.19,-0.96 0.36,-1.73 0.56,-2.59c0.2,-0.9 0.4,-1.76 0.59,-2.7c0.18,-0.88 0.32,-1.72 0.48,-2.51c0.18,-0.95 0.39,-1.8 0.47,-2.66c0.09,-0.99 0.03,-1.95 0.08,-2.65c0.08,-0.94 0.22,-1.92 0.23,-2.79c0,-0.9 0,-1.75 0.13,-2.65c0.12,-0.87 0.26,-1.77 0.36,-2.57c0.12,-0.91 -0.05,-1.8 0.03,-2.61c0.09,-0.9 0.24,-1.87 0.24,-2.68c0,-0.98 0,-1.84 0,-2.7c0,-0.93 0.15,-1.78 0.25,-2.64c0.1,-0.84 -0.13,-1.8 0.01,-2.67c0.13,-0.8 0.19,-1.73 0.24,-2.63c0.05,-0.85 0.2,-1.71 0.25,-2.6c0.05,-0.86 0.29,-1.72 0.41,-2.57c0.13,-0.88 0.34,-1.72 0.34,-2.63c0,-0.87 0.25,-1.71 0.25,-2.57c0,-0.91 0.13,-1.74 0.25,-2.6c0.12,-0.88 0.63,-1.7 0.5,-2.56c-0.11,-0.76 0.33,-0.66 1,-0.22c0.62,0.41 0.76,0.71 0.16,0.25c-0.59,-0.46 -0.8,-1.37 -1.02,-2.23c-0.2,-0.78 -0.14,-1.68 -0.14,-2.59c0,-0.9 0.19,-1.69 0.41,-2.43c0.24,-0.8 0.48,-1.56 0.6,-2.43c0.13,-0.86 0.24,-1.72 0.24,-2.6c0,-0.88 0.37,-1.92 -0.08,-2.22c-0.73,-0.49 -1.7,0 -2.67,0c-0.89,0 -1.76,0 -2.67,0c-0.89,0 -1.73,0 -2.7,0c-0.83,0 -1.68,0 -2.63,0c-0.89,0 -1.74,0 -2.64,0c-0.91,0 -1.78,-0.05 -2.72,0c-0.87,0.04 -1.71,0.24 -2.59,0.25c-0.87,0.01 -1.77,0 -2.66,0c-0.91,0 -1.79,0 -2.69,0c-0.87,0 -1.61,-0.31 -2.25,-0.5c-0.84,-0.24 -1.77,0 -2.64,0c-0.84,0 -1.67,0.31 -2.5,0.43c-0.9,0.13 -1.3,0.57 -1.3,1.46c0,0.9 0,1.77 0,2.66c0,0.88 -0.12,1.8 0,2.65c0.13,0.9 0.28,1.72 0.5,2.59c0.21,0.81 0.37,1.72 0.24,2.58c-0.13,0.9 -0.24,1.73 -0.24,2.62c0,0.9 0,1.78 0,2.66c0,0.9 0.04,1.8 0.16,2.6c0.14,0.9 0.15,1.8 0.27,2.65c0.13,0.92 0.08,1.77 0.32,2.73c0.2,0.78 0.45,1.67 0.75,2.45c0.31,0.8 0.65,1.56 0.75,2.45c0.1,0.87 0.25,1.72 0.25,2.64c0,0.88 0.12,1.72 -0.01,2.64c-0.12,0.87 -0.28,1.74 -0.48,2.6c-0.2,0.85 -0.44,1.74 -0.51,2.62c-0.08,0.87 0.24,1.68 0.39,2.52c0.17,0.92 0.42,1.69 0.61,2.51c0.19,0.82 0.22,1.7 0.25,2.58c0.04,0.91 0.13,1.75 0.25,2.63c0.12,0.87 0.62,1.64 0.75,2.43c0.14,0.88 0.37,1.69 0.5,2.48c0.14,0.88 0.14,1.67 0.27,2.54c0.13,0.84 0.49,1.63 0.73,2.44c0.24,0.82 0.32,1.67 0.5,2.4c0.2,0.82 0.15,1.68 0.34,2.53c0.19,0.83 0.75,1.58 0.91,2.47c0.16,0.86 0.04,1.74 0.25,2.58c0.2,0.8 0.38,1.68 0.61,2.58c0.21,0.83 0.39,1.67 0.39,2.57c0,0.89 0.19,1.74 0.16,2.55c-0.03,0.85 -0.16,1.72 -0.16,2.6c0,0.91 -0.04,1.81 0.09,2.65c0.13,0.84 0.41,1.7 0.54,2.54c0.13,0.86 0.23,1.69 0.38,2.56c0.14,0.84 0.25,1.7 0.25,2.59c0,0.88 0.14,1.75 0.25,2.57c0.11,0.85 0.01,1.77 0,2.66c-0.01,0.88 0.28,1.27 0.5,1.9c0.29,0.82 -0.43,1.6 -0.5,2.41c-0.08,0.88 -0.75,1.05 -1.47,1.26c-0.71,0.2 -1.61,0.19 -2.5,0.19c-0.88,0 -1.65,0.25 -2.5,0.25c-0.92,0 -1.79,0.14 -2.62,0.36c-0.8,0.21 -1.73,0.26 -2.54,0.39c-0.86,0.14 -1.63,0.43 -2.47,0.61c-0.83,0.18 -1.47,0.55 -2.23,0.98c-0.77,0.44 -1.53,0.77 -2.28,1.26c-0.72,0.47 -1.42,1.02 -2.14,1.4c-0.71,0.38 -1.56,0.51 -2.39,0.76c-0.82,0.24 -1.65,0.59 -2.53,0.83c-0.85,0.23 -1.7,0.24 -2.47,0.54c-0.79,0.31 -1.72,0.45 -2.56,0.62c-0.82,0.16 -1.75,0.29 -2.54,0.74c-0.75,0.42 -1.19,1.22 -1.83,1.83c-0.64,0.62 -1.35,1.1 -2.1,1.44c-0.79,0.36 -1.7,0.43 -2.5,0.76c-0.74,0.31 -1.48,0.73 -2.21,1.24c-0.71,0.49 -1.35,1.02 -1.95,1.57c-0.68,0.63 -1.22,1.25 -1.94,1.68c-0.74,0.43 -2.09,1.24 -2.57,0.5c-0.31,-0.48 0.43,-1.35 0.78,-2.12c0.34,-0.76 1.08,-1.4 1.7,-1.89c0.6,-0.47 0.85,-0.24 0.28,0.33c-0.63,0.64 -1.18,1.29 -1.65,2c-0.49,0.72 -0.76,1.56 -1.01,2.27c-0.26,0.72 -0.67,1.46 -1.26,2.04c-0.6,0.58 -1.52,0.81 -2.13,1.38c-0.61,0.57 -0.49,1.51 -0.63,2.37c-0.14,0.86 -0.65,1.63 -0.74,2.45c-0.11,0.91 -0.34,1.7 -0.49,2.54c-0.16,0.89 -0.34,1.7 -0.63,2.51c-0.29,0.81 -0.38,1.67 -0.38,2.59c0,0.89 -0.11,1.7 -0.56,2.43c-0.47,0.76 -1.09,0.96 -1.95,0.72l-0.83,-0.29" fill="#000000" id="svg_1" stroke="#000000" stroke-width="5"/>
  <rect fill="#000000" height="11.25" id="svg_2" stroke="#000000" stroke-width="5" width="35.5" x="202.75" y="204.75"/>
  <path d="m165.75,335.75c-0.75,0.41 -1.59,0.71 -2.09,1.43c-0.48,0.7 -0.71,1.64 -1.04,2.49c-0.34,0.88 -0.5,1.81 -0.63,2.71c-0.14,0.98 0,1.93 0,2.9c0,0.93 0,1.92 0,2.86c0,0.98 0.06,1.89 -0.04,2.9c-0.09,0.86 -0.16,1.87 -0.21,2.89c-0.04,0.95 -0.3,1.88 -0.51,2.72c-0.24,0.96 -0.65,1.84 -0.99,2.69c-0.34,0.83 -0.5,1.64 -0.49,2.12l0.65,0.27" fill="none" id="svg_3" stroke="#000000" stroke-width="5"/>
  <path d="m222,365.75c0,-0.88 0.25,-1.54 0,-2.32l-0.25,-0.77" fill="none" id="svg_6" stroke="#000000" stroke-width="5"/>
 </g>
</svg>