<?xml version="1.0"?>
<svg width="440" height="440" xmlns="http://www.w3.org/2000/svg" xmlns:svg="http://www.w3.org/2000/svg">
 <!-- Created with SVG-edit - https://github.com/SVG-Edit/svgedit-->
 <g class="layer">
  <title>Layer 1</title>
  <path d="m222.59,47.04c-3.64,0 -6.87,1.49 -9.6,4.2c-2.73,2.71 -4.98,6.58 -6.86,11.42c-3.75,9.68 -6.06,23.28 -7.33,39.57c-1.26,16.26 -1.47,35.19 -0.95,55.45c-44.92,18.43 -136.03,56.48 -143.35,64.98c-9.74,11.31 -6.6,24.27 -2.67,32.88l149.78,-30.49c3.17,39.73 7.67,79.08 11.59,109.91c-14.65,4.29 -41.99,12.75 -47.63,18c-7.77,7.23 -7.77,30.58 -7.77,30.58l61.3,-4.99c1.44,10.07 2.35,15.94 2.35,15.94l0.09,0.53l0.48,0l1.13,0l0.48,0l0.09,-0.53c0,0 0.9,-5.87 2.35,-15.94l61.32,4.99c0,0 0,-23.35 -7.77,-30.58c-5.65,-5.25 -33.01,-13.73 -47.65,-18.02c3.91,-30.74 8.41,-69.94 11.57,-109.54l148.03,30.13c3.93,-8.61 7.09,-21.57 -2.65,-32.88c-7.23,-8.39 -96.14,-45.59 -141.61,-64.27c0.54,-20.53 0.34,-39.72 -0.93,-56.16l0,-0.04c-1.26,-16.27 -3.58,-29.86 -7.33,-39.53c-1.88,-4.84 -4.11,-8.72 -6.84,-11.42c-2.73,-2.71 -5.97,-4.2 -9.6,-4.2l-0.02,0.01z" fill="#ffffff" id="svg_4" stroke="#000000" stroke-width="5"/>
  <path d="m196.25,158.5l4.75,64.5l-143.5,30.5c0,0 -6.25,-0.5 -6.25,-0.5c0,0 -2.25,-16.5 -2.25,-16.5c0,0 8.5,-13.75 10,-14.75c1.5,-1 137.25,-63.25 137.25,-63.25z" fill="#070606" id="svg_5" stroke="#000000" stroke-width="5"/>
  <path d="m250,162.25c0.77,0.63 1.51,1.02 2.34,1.35c0.81,0.32 1.7,0.67 2.57,1.11c0.77,0.38 1.33,0.67 2.17,1.09c0.9,0.45 1.64,0.81 2.48,1.11c0.81,0.28 1.75,0.68 2.56,1.02c0.86,0.36 1.74,0.56 2.49,0.96c0.8,0.42 1.47,1 2.16,1.44c0.77,0.48 1.5,0.89 2.31,1.37c0.78,0.46 1.65,0.72 2.34,0.97c0.93,0.33 1.82,0.72 2.59,0.95c0.9,0.27 1.76,0.67 2.56,0.9c0.84,0.24 1.69,0.61 2.54,0.87c0.85,0.26 1.61,0.55 2.47,0.89c0.81,0.32 1.62,0.66 2.48,1.04c0.74,0.32 1.58,0.71 2.42,0.99c0.87,0.29 1.67,0.6 2.46,1c0.76,0.39 1.54,0.71 2.38,0.97c0.86,0.26 1.64,0.67 2.45,0.95c0.79,0.27 1.65,0.55 2.43,0.91c0.84,0.39 1.6,0.85 2.45,1.13c0.83,0.27 1.6,0.71 2.32,1.06c0.89,0.44 1.68,0.51 2.61,0.81c0.77,0.25 1.65,0.51 2.5,0.81c0.85,0.3 1.65,0.59 2.52,0.83c0.84,0.23 1.64,0.61 2.54,0.83c0.73,0.17 1.71,0.36 2.6,0.53c0.87,0.17 1.65,0.51 2.44,0.81c0.85,0.32 1.78,0.5 2.63,0.82c0.71,0.26 1.51,0.61 2.28,0.99c0.78,0.38 1.3,0.95 1.93,1.57c0.61,0.6 1.23,1.2 1.76,1.72c0.6,0.59 1.39,1.07 2.19,1.47c0.73,0.36 1.42,0.87 2.11,1.34c0.74,0.52 1.58,1.03 2.23,1.41c0.81,0.47 1.51,1.03 2.25,1.5c0.66,0.42 1.49,1.02 2.22,1.4c0.77,0.4 1.66,0.75 2.5,0.99c0.85,0.24 1.71,0.37 2.56,0.61c0.8,0.23 1.51,0.77 2.39,0.96c0.86,0.18 1.64,0.36 2.47,0.58c0.9,0.24 1.74,0.45 2.58,0.74c0.83,0.28 1.58,0.62 2.48,0.95c0.79,0.29 1.63,0.48 2.47,0.74c0.82,0.25 1.68,0.46 2.56,0.6c0.87,0.14 1.66,0.41 2.5,0.66c0.81,0.24 1.58,0.58 2.38,0.93c0.77,0.34 1.65,0.67 2.25,1.11c0.68,0.48 1.11,1.34 1.75,1.74c0.74,0.47 1.63,0.61 2.38,0.94c0.85,0.37 1.65,0.67 2.51,0.8c0.88,0.13 1.65,0.46 2.43,0.75c0.77,0.28 1.38,0.82 2.01,1.37c0.64,0.57 1.46,0.96 2.03,1.53c0.64,0.64 1.3,1.07 2.09,1.37c0.87,0.33 1.65,0.54 2.37,0.98c0.76,0.46 1.52,0.81 2.18,1.26c0.72,0.5 1.59,0.77 2.32,1.26c0.63,0.42 0.82,1.35 1.1,2.05c0.35,0.85 0.64,1.58 1.02,2.3c0.37,0.7 0.71,1.39 1.13,2.13c0.41,0.71 0.82,1.47 1.25,2.24c0.37,0.66 0.76,1.33 1.06,2.12c0.3,0.8 0.58,1.59 0.94,2.43c0.34,0.78 0.49,1.62 0.5,2.53c0.01,0.87 -0.09,1.79 0.04,2.68c0.12,0.81 0.34,1.65 0.46,2.54c0.11,0.84 0.4,1.72 0.25,2.6c-0.13,0.8 -0.68,1.49 -1.15,2.26c-0.47,0.78 -0.8,1.48 -1.14,2.22c-0.36,0.78 -0.71,1.33 -1.58,1.38c-0.88,0.04 -1.62,0.68 -2.45,0.66c-0.87,-0.02 -1.66,-0.35 -2.45,-0.41c-0.82,-0.07 -1.76,-0.06 -2.6,-0.18c-0.89,-0.13 -1.78,-0.07 -2.67,-0.07c-0.87,0 -1.74,0.18 -2.56,0.25c-0.89,0.08 -1.74,-0.19 -2.66,-0.25c-0.83,-0.05 -1.68,-0.37 -2.53,-0.5c-0.88,-0.14 -1.77,-0.24 -2.56,-0.61c-0.76,-0.35 -1.44,-0.89 -2.21,-1.24c-0.77,-0.35 -1.65,-0.77 -2.49,-0.9c-0.85,-0.13 -1.74,0 -2.64,0c-0.91,0 -1.8,0 -2.64,0c-0.94,0 -1.82,-0.16 -2.69,-0.25c-0.88,-0.09 -1.73,-0.13 -2.55,-0.27c-0.89,-0.15 -1.78,-0.24 -2.56,-0.49c-0.83,-0.26 -1.58,-0.71 -2.38,-1.2c-0.61,-0.38 -1.31,-1.08 -2.11,-1.63c-0.68,-0.47 -1.59,-0.66 -2.22,-0.84c-1.07,-0.3 -1.9,-0.68 -2.73,-0.81c-0.86,-0.13 -1.75,0 -2.62,0c-0.86,0 -1.76,0.41 -2.64,0.25c-0.69,-0.13 -1.53,-0.18 -2.43,-0.25c-0.86,-0.06 -1.71,-0.3 -2.56,-0.56c-0.82,-0.25 -1.69,-0.23 -2.57,-0.44c-0.83,-0.2 -1.55,-0.6 -2.52,-0.88c-0.81,-0.24 -1.62,-0.43 -2.46,-0.55c-0.86,-0.13 -1.76,-0.13 -2.62,-0.32c-0.82,-0.18 -1.62,-0.51 -2.45,-0.75c-0.85,-0.24 -1.63,-0.53 -2.35,-1.05c-0.68,-0.49 -1.42,-1.03 -2.15,-1.47c-0.74,-0.45 -1.63,-0.48 -2.49,-0.48c-0.84,0 -1.83,0 -2.68,0c-0.91,0 -1.79,0.11 -2.67,-0.02c-0.85,-0.12 -1.72,-0.35 -2.53,-0.48c-0.87,-0.14 -1.74,-0.18 -2.53,-0.41c-0.85,-0.25 -1.6,-0.64 -2.42,-0.89c-0.82,-0.25 -1.58,-0.54 -2.43,-0.69c-0.87,-0.16 -1.73,-0.24 -2.57,-0.5c-0.8,-0.24 -1.69,-0.32 -2.52,-0.57c-0.82,-0.25 -1.58,-0.67 -2.41,-0.92c-0.8,-0.24 -1.7,-0.34 -2.57,-0.56c-0.79,-0.2 -1.6,-0.49 -2.48,-0.69c-0.84,-0.2 -1.67,-0.2 -2.55,-0.48c-0.73,-0.23 -1.6,-0.36 -2.46,-0.27c-0.89,0.09 -1.8,0.3 -2.63,0.25c-0.91,-0.05 -1.78,-0.15 -2.66,-0.29c-0.78,-0.12 -1.68,-0.14 -2.49,-0.23c-0.98,-0.11 -1.84,-0.24 -2.74,-0.45c-0.82,-0.19 -1.67,-0.37 -2.56,-0.5c-0.87,-0.12 -1.62,-0.34 -2.42,-0.53c-0.86,-0.2 -1.73,-0.23 -2.58,-0.51c-0.8,-0.26 -1.67,-0.5 -2.47,-0.75c-0.79,-0.25 -1.74,-0.26 -2.55,-0.5c-0.72,-0.21 -1.53,-0.4 -2.44,-0.54c-0.83,-0.13 -1.69,-0.3 -2.56,-0.46c-0.83,-0.15 -1.72,-0.25 -2.54,-0.5c-0.84,-0.25 -1.66,-0.5 -1.86,-1.18c-0.25,-0.83 -0.27,-1.72 -0.49,-2.59c-0.19,-0.77 -0.55,-1.69 -0.75,-2.55c-0.2,-0.86 -0.38,-1.7 -0.58,-2.59c-0.18,-0.81 -0.42,-1.66 -0.59,-2.52c-0.19,-0.93 -0.17,-1.83 -0.32,-2.64c-0.18,-0.94 -0.43,-1.73 -0.5,-2.62c-0.07,-0.89 -0.14,-1.71 -0.25,-2.62c-0.11,-0.9 -0.25,-1.77 -0.25,-2.68c0,-0.86 0.06,-1.76 -0.07,-2.66c-0.12,-0.86 -0.11,-1.7 -0.18,-2.62c-0.06,-0.86 -0.25,-1.7 -0.43,-2.59c-0.17,-0.88 -0.32,-1.79 -0.32,-2.66c0,-0.94 0,-1.76 0,-2.69c0,-0.85 0.08,-1.8 -0.01,-2.67c-0.08,-0.82 -0.24,-1.72 -0.24,-2.71c0,-0.76 0,-1.67 0,-2.61c0,-0.84 0,-1.66 0,-2.68c0,-0.84 0,-1.65 0,-2.62c0,-0.89 0.18,-1.74 0.25,-2.69c0.06,-0.87 0.25,-1.72 0.49,-2.57c0.24,-0.83 0.51,-1.63 0.8,-2.46c0.29,-0.84 0.58,-1.63 0.91,-2.42c0.33,-0.79 0.65,-1.61 1.06,-2.41c0.39,-0.75 0.96,-1.22 1.6,-1.47l0.9,0l0.89,0" fill="#000000" id="svg_12" stroke="#000000" stroke-width="5"/>
  <path d="m184.25,185.25c1.07,-0.24 1.9,-0.35 2.86,-0.48c0.85,-0.11 1.66,-0.23 2.62,-0.57c0.65,-0.23 1.59,-0.7 2.32,-0.99c0.9,-0.35 1.68,-0.62 2.5,-0.88c1.03,-0.33 1.72,-0.46 2.46,-0.75c1,-0.39 1.76,-0.9 2.42,-1.21c0.98,-0.45 1.68,-0.86 2.5,-1.17c0.86,-0.33 1.74,-0.58 2.45,-0.95c0.8,-0.42 1.71,-0.72 2.42,-0.97c0.9,-0.32 1.76,-0.67 2.55,-1.09c0.72,-0.38 1.52,-1.03 2.28,-1.49c0.64,-0.38 1.4,-0.92 2.03,-1.61c0.58,-0.64 0.87,-1.48 1.21,-2.34c0.32,-0.8 0.38,-1.71 0.38,-2.58c0,-0.91 0.06,-1.82 0,-2.67c-0.06,-0.88 -0.24,-1.77 -0.55,-2.6c-0.32,-0.84 -0.52,-1.66 -0.71,-2.56c-0.18,-0.84 -0.23,-1.83 -0.87,-2.47c-0.58,-0.59 -1.38,-0.97 -2.21,-1.13c-0.88,-0.17 -1.74,-0.25 -2.62,-0.25c-0.92,0 -1.81,0 -2.65,0.13c-0.87,0.13 -1.74,0.05 -2.64,0.18c-0.86,0.12 -1.73,0.18 -2.56,0.42c-0.78,0.23 -1.61,0.47 -2.36,0.92c-0.73,0.44 -1.36,1.09 -1.92,1.68c-0.68,0.71 -1.15,1.43 -1.74,2.15c-0.54,0.66 -0.97,1.44 -1.18,2.28c-0.2,0.77 -0.53,1.67 -0.79,2.37c-0.38,1 -0.72,1.82 -0.98,2.66c-0.26,0.86 -0.47,1.69 -0.48,2.56c0,0.9 0.1,1.73 0.22,2.72c0.1,0.82 0.22,1.69 0.94,2.28c0.59,0.49 1.41,0.85 2.22,1.21c0.87,0.39 1.61,0.67 2.53,0.96l0.94,0.25l0.86,0.18" fill="#000000" id="svg_13" stroke="#000000" stroke-width="5"/>
  <path d="m245.75,164.25c0.18,-0.75 0.96,-1.09 1.74,-1.5c0.68,-0.36 1.46,-0.76 2.26,-1c0.82,-0.24 1.68,-0.49 2.51,-0.5c0.85,-0.01 0.66,0.84 -0.13,1.13l-0.83,0.02" fill="none" id="svg_14" stroke="#000000" stroke-width="5"/>
  <rect fill="#000000" height="71.75" id="svg_15" stroke="#000000" stroke-width="5" width="40.75" x="202" y="154.75"/>
 </g>
</svg>