<?xml version="1.0"?>
<svg width="440" height="440" xmlns="http://www.w3.org/2000/svg" xmlns:svg="http://www.w3.org/2000/svg">
 <!-- Created with SVG-edit - https://github.com/SVG-Edit/svgedit-->
 <g class="layer">
  <title>Layer 1</title>
  <path d="m222.84,48.54c-3.64,0 -6.87,1.49 -9.6,4.2c-2.73,2.71 -4.98,6.58 -6.86,11.42c-3.75,9.68 -6.06,23.28 -7.33,39.57c-1.26,16.26 -1.47,35.19 -0.95,55.45c-44.92,18.43 -136.03,56.48 -143.35,64.98c-9.74,11.31 -6.6,24.27 -2.67,32.88l149.78,-30.49c3.17,39.73 7.67,79.08 11.59,109.91c-14.65,4.29 -41.99,12.75 -47.63,18c-7.77,7.23 -7.77,30.58 -7.77,30.58l61.3,-4.99c1.44,10.07 2.35,15.94 2.35,15.94l0.09,0.53l0.48,0l1.13,0l0.48,0l0.09,-0.53c0,0 0.9,-5.87 2.35,-15.94l61.32,4.99c0,0 0,-23.35 -7.77,-30.58c-5.65,-5.25 -33.01,-13.73 -47.65,-18.02c3.91,-30.74 8.41,-69.94 11.57,-109.54l148.03,30.13c3.93,-8.61 7.09,-21.57 -2.65,-32.88c-7.23,-8.39 -96.14,-45.59 -141.61,-64.27c0.54,-20.53 0.34,-39.72 -0.93,-56.16l0,-0.04c-1.26,-16.27 -3.58,-29.86 -7.33,-39.53c-1.88,-4.84 -4.11,-8.72 -6.84,-11.42c-2.73,-2.71 -5.97,-4.2 -9.6,-4.2l-0.02,0.01z" fill="#ffffff" id="svg_4" stroke="#000000" stroke-width="5"/>
  <ellipse cx="223" cy="96" fill="#000000" id="svg_5" rx="24" ry="47" stroke="#000000" stroke-width="5"/>
  <rect fill="#000000" height="63" id="svg_6" stroke="#000000" stroke-width="5" width="42" x="202" y="95"/>
 </g>
</svg>